<mxfile host="app.diagrams.net" modified="2023-06-07T11:47:21.409Z" agent="Mozilla/5.0 (X11; Ubuntu; Linux x86_64; rv:109.0) Gecko/20100101 Firefox/113.0" etag="prSQ8uvHJ1VfUL9sPKvZ" version="21.3.7" type="device">
  <diagram name="Page-1" id="gUWhoODglxjBxta9EbK4">
    <mxGraphModel dx="2070" dy="2285" grid="1" gridSize="10" guides="1" tooltips="1" connect="1" arrows="1" fold="1" page="1" pageScale="1" pageWidth="827" pageHeight="1169" math="0" shadow="0">
      <root>
        <mxCell id="0" />
        <mxCell id="1" parent="0" />
        <mxCell id="ZttpDixC8CZAMg3ueifD-7" style="edgeStyle=orthogonalEdgeStyle;rounded=0;orthogonalLoop=1;jettySize=auto;html=1;exitX=1;exitY=0.5;exitDx=0;exitDy=0;endArrow=none;endFill=0;" edge="1" parent="1" source="ZttpDixC8CZAMg3ueifD-1" target="ZttpDixC8CZAMg3ueifD-4">
          <mxGeometry relative="1" as="geometry" />
        </mxCell>
        <mxCell id="ZttpDixC8CZAMg3ueifD-8" style="edgeStyle=orthogonalEdgeStyle;rounded=0;orthogonalLoop=1;jettySize=auto;html=1;exitX=0.5;exitY=0;exitDx=0;exitDy=0;endArrow=none;endFill=0;" edge="1" parent="1" source="ZttpDixC8CZAMg3ueifD-1">
          <mxGeometry relative="1" as="geometry">
            <mxPoint x="414" y="290" as="targetPoint" />
          </mxGeometry>
        </mxCell>
        <mxCell id="ZttpDixC8CZAMg3ueifD-1" value="" style="image;html=1;image=img/lib/clip_art/networking/Firewall_02_128x128.png;direction=east;flipH=1;" vertex="1" parent="1">
          <mxGeometry x="364" y="350" width="100" height="100" as="geometry" />
        </mxCell>
        <mxCell id="ZttpDixC8CZAMg3ueifD-5" style="edgeStyle=orthogonalEdgeStyle;rounded=0;orthogonalLoop=1;jettySize=auto;html=1;exitX=0.875;exitY=0.5;exitDx=0;exitDy=0;exitPerimeter=0;endArrow=none;endFill=0;" edge="1" parent="1" source="ZttpDixC8CZAMg3ueifD-2" target="ZttpDixC8CZAMg3ueifD-1">
          <mxGeometry relative="1" as="geometry" />
        </mxCell>
        <mxCell id="ZttpDixC8CZAMg3ueifD-11" style="edgeStyle=orthogonalEdgeStyle;rounded=0;orthogonalLoop=1;jettySize=auto;html=1;exitX=0.4;exitY=0.1;exitDx=0;exitDy=0;exitPerimeter=0;endArrow=none;endFill=0;" edge="1" parent="1" source="ZttpDixC8CZAMg3ueifD-2" target="ZttpDixC8CZAMg3ueifD-9">
          <mxGeometry relative="1" as="geometry" />
        </mxCell>
        <mxCell id="ZttpDixC8CZAMg3ueifD-33" style="rounded=0;orthogonalLoop=1;jettySize=auto;html=1;exitX=0.625;exitY=0.2;exitDx=0;exitDy=0;exitPerimeter=0;strokeColor=none;" edge="1" parent="1" source="ZttpDixC8CZAMg3ueifD-2" target="ZttpDixC8CZAMg3ueifD-32">
          <mxGeometry relative="1" as="geometry" />
        </mxCell>
        <mxCell id="ZttpDixC8CZAMg3ueifD-34" style="rounded=0;orthogonalLoop=1;jettySize=auto;html=1;exitX=0.625;exitY=0.2;exitDx=0;exitDy=0;exitPerimeter=0;endArrow=none;endFill=0;strokeColor=#808080;" edge="1" parent="1" source="ZttpDixC8CZAMg3ueifD-2" target="ZttpDixC8CZAMg3ueifD-32">
          <mxGeometry relative="1" as="geometry" />
        </mxCell>
        <mxCell id="ZttpDixC8CZAMg3ueifD-2" value="" style="ellipse;shape=cloud;whiteSpace=wrap;html=1;fillColor=#ffe6cc;strokeColor=#d79b00;" vertex="1" parent="1">
          <mxGeometry x="70" y="335" width="230" height="130" as="geometry" />
        </mxCell>
        <mxCell id="ZttpDixC8CZAMg3ueifD-36" style="rounded=0;orthogonalLoop=1;jettySize=auto;html=1;exitX=0.5;exitY=0;exitDx=0;exitDy=0;endArrow=none;endFill=0;strokeColor=#808080;" edge="1" parent="1" source="ZttpDixC8CZAMg3ueifD-15" target="ZttpDixC8CZAMg3ueifD-32">
          <mxGeometry relative="1" as="geometry" />
        </mxCell>
        <mxCell id="ZttpDixC8CZAMg3ueifD-3" value="" style="ellipse;shape=cloud;whiteSpace=wrap;html=1;fillColor=#dae8fc;strokeColor=#6c8ebf;" vertex="1" parent="1">
          <mxGeometry x="300" y="160" width="220" height="130" as="geometry" />
        </mxCell>
        <mxCell id="ZttpDixC8CZAMg3ueifD-35" style="rounded=0;orthogonalLoop=1;jettySize=auto;html=1;exitX=0.625;exitY=0.2;exitDx=0;exitDy=0;exitPerimeter=0;endArrow=none;endFill=0;strokeColor=#808080;" edge="1" parent="1" source="ZttpDixC8CZAMg3ueifD-4" target="ZttpDixC8CZAMg3ueifD-32">
          <mxGeometry relative="1" as="geometry" />
        </mxCell>
        <mxCell id="ZttpDixC8CZAMg3ueifD-4" value="" style="ellipse;shape=cloud;whiteSpace=wrap;html=1;fillColor=#f5f5f5;fontColor=#333333;strokeColor=#666666;" vertex="1" parent="1">
          <mxGeometry x="530" y="340" width="230" height="130" as="geometry" />
        </mxCell>
        <mxCell id="ZttpDixC8CZAMg3ueifD-9" value="" style="image;points=[];aspect=fixed;html=1;align=center;shadow=0;dashed=0;image=img/lib/allied_telesis/computer_and_terminals/Server_Desktop.svg;" vertex="1" parent="1">
          <mxGeometry x="120" y="190" width="80.47" height="102" as="geometry" />
        </mxCell>
        <mxCell id="ZttpDixC8CZAMg3ueifD-10" value="" style="image;aspect=fixed;html=1;points=[];align=center;fontSize=12;image=img/lib/azure2/networking/DNS_Zones.svg;" vertex="1" parent="1">
          <mxGeometry x="160" y="230" width="30" height="30" as="geometry" />
        </mxCell>
        <mxCell id="ZttpDixC8CZAMg3ueifD-14" value="&lt;div&gt;Internet&lt;/div&gt;&lt;div&gt;192.42.0.0/16&lt;/div&gt;" style="text;strokeColor=none;align=center;fillColor=none;html=1;verticalAlign=middle;whiteSpace=wrap;rounded=0;" vertex="1" parent="1">
          <mxGeometry x="140" y="385" width="90" height="40" as="geometry" />
        </mxCell>
        <mxCell id="ZttpDixC8CZAMg3ueifD-15" value="&lt;div&gt;DMZ&lt;br&gt;    172.17.100.0/24&lt;/div&gt;" style="text;strokeColor=none;align=center;fillColor=none;html=1;verticalAlign=middle;whiteSpace=wrap;rounded=0;" vertex="1" parent="1">
          <mxGeometry x="369" y="205" width="90" height="40" as="geometry" />
        </mxCell>
        <mxCell id="ZttpDixC8CZAMg3ueifD-16" value="LAN&lt;br&gt;    &lt;br/&gt;    192.168.100.0/24" style="text;strokeColor=none;align=center;fillColor=none;html=1;verticalAlign=middle;whiteSpace=wrap;rounded=0;" vertex="1" parent="1">
          <mxGeometry x="610" y="385" width="90" height="40" as="geometry" />
        </mxCell>
        <mxCell id="ZttpDixC8CZAMg3ueifD-17" value="Public DNS" style="text;strokeColor=none;align=center;fillColor=none;html=1;verticalAlign=middle;whiteSpace=wrap;rounded=0;" vertex="1" parent="1">
          <mxGeometry x="120" y="160" width="60" height="30" as="geometry" />
        </mxCell>
        <mxCell id="ZttpDixC8CZAMg3ueifD-18" value="Firewall" style="text;strokeColor=none;align=center;fillColor=none;html=1;verticalAlign=middle;whiteSpace=wrap;rounded=0;" vertex="1" parent="1">
          <mxGeometry x="350" y="330" width="60" height="30" as="geometry" />
        </mxCell>
        <mxCell id="ZttpDixC8CZAMg3ueifD-19" value="" style="shape=image;html=1;verticalAlign=top;verticalLabelPosition=bottom;labelBackgroundColor=#ffffff;imageAspect=0;aspect=fixed;image=https://cdn4.iconfinder.com/data/icons/crime-and-security-24/64/57-128.png" vertex="1" parent="1">
          <mxGeometry x="390" y="385" width="40" height="40" as="geometry" />
        </mxCell>
        <mxCell id="ZttpDixC8CZAMg3ueifD-32" value="" style="sketch=0;pointerEvents=1;shadow=0;dashed=0;html=1;strokeColor=none;fillColor=#505050;labelPosition=center;verticalLabelPosition=bottom;verticalAlign=top;outlineConnect=0;align=center;shape=mxgraph.office.devices.workstation;" vertex="1" parent="1">
          <mxGeometry x="364" y="-20" width="80" height="90" as="geometry" />
        </mxCell>
        <mxCell id="ZttpDixC8CZAMg3ueifD-37" value="&lt;div&gt;Management&lt;/div&gt;&lt;div&gt;Host&lt;br&gt;&lt;/div&gt;" style="text;html=1;strokeColor=none;fillColor=none;align=center;verticalAlign=middle;whiteSpace=wrap;rounded=0;" vertex="1" parent="1">
          <mxGeometry x="364" y="-50" width="60" height="30" as="geometry" />
        </mxCell>
      </root>
    </mxGraphModel>
  </diagram>
</mxfile>
